<svg width="150" height="150" viewBox="0 0 150 150" fill="none" xmlns="http://www.w3.org/2000/svg">
<path fill-rule="evenodd" clip-rule="evenodd" d="M16.161 75.1504L11.3139 80.0033C3.9004 87.863 -0.156623 98.3033 0.0046292 109.106C0.165882 119.91 4.5327 130.224 12.1774 137.859C19.8222 145.494 30.1424 149.848 40.9457 149.995C51.749 150.142 62.1841 146.072 70.0343 138.648L74.6383 134.044L79.2424 138.573C87.0925 145.996 97.5276 150.067 108.331 149.919C119.134 149.772 129.454 145.419 137.099 137.784C144.744 130.149 149.111 119.834 149.272 109.031C149.433 98.2279 145.376 87.7875 137.963 79.9278L133.251 75.2162L74.739 133.728L16.161 75.1504Z" fill="#3FE1E1"/>
<path fill-rule="evenodd" clip-rule="evenodd" d="M70.0362 11.426L74.6403 15.9546L79.2443 11.3505C87.0944 3.92696 97.5296 -0.143491 108.333 0.00386576C119.136 0.151223 129.456 4.50478 137.101 12.1397C144.746 19.7746 149.113 30.0892 149.274 40.8923C149.435 51.6954 145.378 62.1358 137.965 69.9955L133.194 74.7721L74.738 16.3163L16.1496 74.9047L11.3158 70.0709C3.90236 62.2113 -0.154669 51.7709 0.00658227 40.9678C0.167834 30.1647 4.53466 19.8501 12.1794 12.2152C19.8241 4.58025 30.1443 0.226699 40.9477 0.0793418C51.751 -0.0680151 62.1861 4.00244 70.0362 11.426Z" fill="#000AFF"/>
<path fill-rule="evenodd" clip-rule="evenodd" d="M77.4851 71.4713L73.0297 80.7273L61.4455 54L52.0891 70.4818L16 75.1591L19.99 80.2069H56.099L60.1089 71.4713L72.3101 103L83.2772 79.4343L94.5459 80.6022C95.7455 81.519 97.2448 82.0636 98.8713 82.0636C102.808 82.0636 106 78.8726 106 74.9364C106 71.0001 102.808 67.8091 98.8713 67.8091C97.0455 67.8091 95.38 68.4953 94.1188 69.6239L77.4851 71.4713ZM99.7624 77.6091C101.239 77.6091 102.436 76.4125 102.436 74.9364C102.436 73.4603 101.239 72.2636 99.7624 72.2636C98.286 72.2636 97.0891 73.4603 97.0891 74.9364C97.0891 76.4125 98.286 77.6091 99.7624 77.6091Z" fill="#3FE1E1"/>
</svg>
