<svg width="406" height="150" viewBox="0 0 406 150" fill="none" xmlns="http://www.w3.org/2000/svg">
<path fill-rule="evenodd" clip-rule="evenodd" d="M16.161 75.1504L11.3139 80.0033C3.9004 87.863 -0.156623 98.3033 0.0046292 109.106C0.165882 119.91 4.5327 130.224 12.1774 137.859C19.8222 145.494 30.1424 149.848 40.9457 149.995C51.749 150.142 62.1841 146.072 70.0343 138.648L74.6383 134.044L79.2424 138.573C87.0925 145.996 97.5276 150.067 108.331 149.919C119.134 149.772 129.454 145.419 137.099 137.784C144.744 130.149 149.111 119.834 149.272 109.031C149.433 98.2279 145.376 87.7875 137.963 79.9278L133.251 75.2162L74.739 133.728L16.161 75.1504Z" fill="#3FE1E1"/>
<path fill-rule="evenodd" clip-rule="evenodd" d="M70.0362 11.426L74.6403 15.9546L79.2443 11.3505C87.0944 3.92696 97.5296 -0.143491 108.333 0.00386576C119.136 0.151223 129.456 4.50478 137.101 12.1397C144.746 19.7746 149.113 30.0892 149.274 40.8923C149.435 51.6954 145.378 62.1358 137.965 69.9955L133.194 74.7721L74.738 16.3163L16.1496 74.9047L11.3158 70.0709C3.90236 62.2113 -0.154669 51.7709 0.00658227 40.9678C0.167834 30.1647 4.53466 19.8501 12.1794 12.2152C19.8241 4.58025 30.1443 0.226699 40.9477 0.0793418C51.751 -0.0680151 62.1861 4.00244 70.0362 11.426Z" fill="#0047FF"/>
<path fill-rule="evenodd" clip-rule="evenodd" d="M77.4851 71.4713L73.0297 80.7273L61.4455 54L52.0891 70.4818L16 75.1591L19.99 80.2069H56.099L60.1089 71.4713L72.3101 103L83.2772 79.4343L94.5459 80.6022C95.7455 81.519 97.2448 82.0636 98.8713 82.0636C102.808 82.0636 106 78.8726 106 74.9364C106 71.0001 102.808 67.8091 98.8713 67.8091C97.0455 67.8091 95.38 68.4953 94.1188 69.6239L77.4851 71.4713ZM99.7624 77.6091C101.239 77.6091 102.436 76.4125 102.436 74.9364C102.436 73.4603 101.239 72.2636 99.7624 72.2636C98.286 72.2636 97.0891 73.4603 97.0891 74.9364C97.0891 76.4125 98.286 77.6091 99.7624 77.6091Z" fill="#3FE1E1"/>
<path d="M233.054 49.3292L233.058 49.3255C236.736 46.3343 238.532 41.7301 238.532 35.6229C238.532 29.4519 236.739 24.8136 233.063 21.8212C229.471 18.7747 223.871 17.3017 216.367 17.3017H199.278H198.778V17.8017V67.8855V68.3855H199.278H207.721H208.221V67.8855V53.6369H216.468C223.839 53.6369 229.399 52.231 233.054 49.3292L233.054 49.3292ZM226.401 42.6315L226.401 42.6314L226.394 42.638C224.776 44.2046 221.826 45.0577 217.384 45.0577H208.221V25.9832H216.163C220.814 25.9832 224.079 26.7003 226.053 28.0471C227.974 29.3576 228.988 31.595 228.988 34.906C228.988 38.5204 228.09 41.0562 226.401 42.6315ZM252.535 68.3855H253.035V67.8855V51.4981C253.035 47.1323 254.036 43.7745 255.976 41.3648C257.897 38.9793 260.69 37.7616 264.436 37.7616H264.843H265.349L265.343 37.2554L265.241 29.1641L265.235 28.6564L264.727 28.6706C264.541 28.6758 264.358 28.6802 264.177 28.6846C261.97 28.7378 260.036 28.7844 256.537 30.1637L256.526 30.1682L256.515 30.1732C254.713 30.9878 254.154 31.3324 253.035 32.1347V29.7849V29.2849H252.535H244.601H244.101V29.7849V67.8855V68.3855H244.601H252.535ZM280.088 68.3855H280.588V67.8855V29.7849V29.2849H280.088H272.154H271.654V29.7849V67.8855V68.3855H272.154H280.088ZM294.884 68.3855H295.384V67.8855V47.1965C295.384 43.8815 296.335 41.4001 298.175 39.6748L298.175 39.6749L298.182 39.6686C300.049 37.8536 302.362 36.9423 305.157 36.9423C307.759 36.9423 309.59 37.7551 310.759 39.304C311.95 40.8823 312.591 43.4134 312.591 46.9916V67.8855V68.3855H313.091H321.126H321.626V67.8855V46.6899C321.693 43.5842 322.641 41.2345 324.418 39.5729L324.418 39.5724C326.286 37.821 328.569 36.9423 331.298 36.9423C334.11 36.9423 336.136 37.7855 337.474 39.3988C338.827 41.03 339.546 43.5318 339.546 46.9916V67.8855V68.3855H340.046H347.98H348.48V67.8855V44.5335C348.48 39.5312 347.167 35.6006 344.474 32.8171C341.787 30.0401 338.19 28.6704 333.739 28.6704C328.192 28.6704 323.544 31.0286 319.815 35.6849C318.744 33.4857 317.253 31.7878 315.336 30.6132C313.204 29.3077 310.582 28.6704 307.496 28.6704C304.763 28.6704 302.201 29.377 299.821 30.7858C297.996 31.8137 296.515 33.1549 295.384 34.8064V29.7849V29.2849H294.884H286.95H286.45V29.7849V67.8855V68.3855H286.95H294.884ZM391.278 52.8175H391.778V52.3175V46.7868C391.778 41.3384 389.969 36.93 386.326 33.6144C382.697 30.312 378.165 28.6704 372.766 28.6704C367.349 28.6704 362.714 30.5287 358.889 34.2399C355.051 37.9643 353.143 42.8111 353.143 48.7328C353.143 54.7845 355.013 59.6999 358.785 63.4273C362.545 67.1441 367.217 69 372.766 69C379.464 69 384.925 66.8042 389.099 62.3911L389.418 62.0537L389.105 61.7106L384.528 56.6919L384.131 56.2569L383.766 56.7189C381.511 59.573 378.081 61.0354 373.376 61.0354C370.425 61.0354 367.852 60.2121 365.638 58.573C363.598 57.0622 362.438 55.1506 362.131 52.8175H391.278ZM380.053 39.0608L380.06 39.0667C381.799 40.6366 382.734 42.7529 382.835 45.4674H362.089C362.208 42.9099 363.258 40.8276 365.249 39.1865C367.462 37.4176 370.028 36.5326 372.969 36.5326C375.918 36.5326 378.263 37.3869 380.053 39.0608ZM272.206 14.684C271.162 15.735 270.637 17.023 270.637 18.5186C270.637 20.0804 271.195 21.4045 272.308 22.4559C273.352 23.576 274.668 24.1397 276.223 24.1397C277.711 24.1397 278.992 23.6093 280.036 22.5581C281.145 21.4409 281.707 20.0855 281.707 18.5186C281.707 17.0173 281.143 15.7297 280.036 14.6838C278.997 13.5693 277.717 13 276.223 13C274.663 13 273.316 13.5667 272.206 14.684Z" fill="#3FE1E1" stroke="#3FE1E1"/>
<path d="M207.233 136.383H207.733V135.883V115.106C207.733 111.776 208.687 109.283 210.533 107.55L210.533 107.55L210.539 107.544C212.411 105.721 214.731 104.806 217.533 104.806C220.316 104.806 222.322 105.651 223.647 107.271C224.988 108.91 225.701 111.424 225.701 114.9V135.883V136.383H226.201H234.258H234.758V135.883V112.431C234.758 107.408 233.442 103.462 230.742 100.667C228.047 97.8769 224.406 96.5029 219.878 96.5029C217.138 96.5029 214.57 97.2125 212.184 98.6272C210.353 99.66 208.867 101.008 207.733 102.668V82.5V82H207.233H199.278H198.778V82.5V135.883V136.383H199.278H207.233ZM277.506 120.749H278.006V120.249V114.694C278.006 109.224 276.192 104.797 272.539 101.468C268.902 98.1515 264.358 96.5029 258.945 96.5029C253.514 96.5029 248.868 98.369 245.033 102.096C241.185 105.836 239.273 110.702 239.273 116.649C239.273 122.725 241.147 127.661 244.928 131.404C248.698 135.136 253.382 137 258.945 137C265.661 137 271.135 134.795 275.32 130.363L275.638 130.026L275.326 129.683L270.737 124.643L270.34 124.207L269.974 124.67C267.713 127.537 264.274 129.006 259.557 129.006C256.598 129.006 254.018 128.179 251.798 126.533C249.751 125.015 248.589 123.094 248.281 120.749H277.506ZM266.252 106.934L266.252 106.934L266.258 106.939C268.003 108.517 268.941 110.644 269.042 113.371H248.239C248.358 110.801 249.411 108.708 251.408 107.059C253.627 105.283 256.2 104.394 259.149 104.394C262.105 104.394 264.457 105.252 266.252 106.934ZM331.611 136.383H332.111V135.883V109.191V82.5V82H331.611H323.656H323.156V82.5V135.883V136.383H323.656H331.611ZM351.238 123.54V104.6H360.732H361.232V104.1V97.62V97.12H360.732H351.238V85.5857V85.0857H350.738H342.784H342.284V85.5857V97.12H337.991H337.491V97.62V104.1V104.6H337.991H342.284V123.334C342.284 127.353 343.511 130.672 345.993 133.247L345.998 133.252C348.474 135.749 351.527 137 355.123 137C358.595 137 361.803 135.674 364.736 133.068L365.038 132.8L364.839 132.448L361.575 126.688L361.25 126.114L360.785 126.582C359.129 128.252 357.618 129.006 356.245 129.006C354.661 129.006 353.441 128.532 352.533 127.623C351.687 126.64 351.238 125.298 351.238 123.54ZM377.253 136.383H377.753V135.883V115.106C377.753 111.776 378.708 109.283 380.553 107.55L380.56 107.544C382.432 105.721 384.751 104.806 387.554 104.806C390.336 104.806 392.343 105.651 393.668 107.271C395.009 108.91 395.722 111.424 395.722 114.9V135.883V136.383H396.222H404.278H404.778V135.883V112.431C404.778 107.408 403.463 103.462 400.763 100.667C398.067 97.8769 394.426 96.5029 389.899 96.5029C387.158 96.5029 384.591 97.2124 382.204 98.6271C380.373 99.6599 378.888 101.008 377.753 102.668V82.5V82H377.253H369.299H368.799V82.5V135.883V136.383H369.299H377.253ZM316.799 98.4684V97.9939L316.325 97.9691L308.201 97.5443L307.675 97.5167V98.0436V99.1547C305.899 97.7366 303.377 97.2539 301.042 97.1852C298.261 97.1033 295.582 97.6039 294.337 97.9909C292.422 98.5863 291.143 99.1412 290.126 99.7538C289.107 100.367 288.369 101.027 287.541 101.795C284.914 104.23 283.624 107.368 282.934 111.543L282.927 111.584V111.625C282.927 113.23 282.93 114.992 283.141 116.675C283.353 118.357 283.777 120.003 284.649 121.368C285.155 122.16 285.75 122.891 286.333 123.586C287.532 125.013 290.074 127.35 294.367 128.221L297.214 129.042L297.247 129.051L297.281 129.056L303.015 129.882L303.051 129.888H303.087H307.675V135.883V136.383H308.175H316.299H316.799V135.883V135.882V135.882V135.881V135.881V135.88V135.878V135.877V135.876V135.874V135.872V135.87V135.868V135.865V135.863V135.86V135.857V135.854V135.85V135.847V135.843V135.839V135.835V135.831V135.827V135.822V135.818V135.813V135.808V135.803V135.797V135.792V135.786V135.78V135.774V135.768V135.762V135.755V135.749V135.742V135.735V135.728V135.72V135.713V135.705V135.697V135.689V135.681V135.673V135.665V135.656V135.647V135.638V135.629V135.62V135.611V135.601V135.591V135.582V135.572V135.561V135.551V135.541V135.53V135.519V135.508V135.497V135.486V135.475V135.463V135.452V135.44V135.428V135.416V135.403V135.391V135.379V135.366V135.353V135.34V135.327V135.314V135.3V135.287V135.273V135.259V135.245V135.231V135.217V135.203V135.188V135.174V135.159V135.144V135.129V135.114V135.098V135.083V135.067V135.052V135.036V135.02V135.004V134.987V134.971V134.954V134.938V134.921V134.904V134.887V134.87V134.853V134.835V134.818V134.8V134.782V134.764V134.746V134.728V134.71V134.692V134.673V134.654V134.636V134.617V134.598V134.579V134.559V134.54V134.521V134.501V134.481V134.461V134.441V134.421V134.401V134.381V134.36V134.34V134.319V134.299V134.278V134.257V134.236V134.214V134.193V134.172V134.15V134.129V134.107V134.085V134.063V134.041V134.019V133.997V133.974V133.952V133.929V133.906V133.884V133.861V133.838V133.815V133.791V133.768V133.745V133.721V133.698V133.674V133.65V133.626V133.602V133.578V133.554V133.53V133.505V133.481V133.456V133.432V133.407V133.382V133.357V133.332V133.307V133.282V133.257V133.231V133.206V133.18V133.154V133.129V133.103V133.077V133.051V133.025V132.999V132.973V132.946V132.92V132.893V132.867V132.84V132.813V132.787V132.76V132.733V132.706V132.678V132.651V132.624V132.597V132.569V132.542V132.514V132.486V132.458V132.431V132.403V132.375V132.347V132.319V132.29V132.262V132.234V132.205V132.177V132.148V132.12V132.091V132.062V132.034V132.005V131.976V131.947V131.918V131.888V131.859V131.83V131.801V131.771V131.742V131.712V131.683V131.653V131.623V131.594V131.564V131.534V131.504V131.474V131.444V131.414V131.384V131.353V131.323V131.293V131.262V131.232V131.201V131.171V131.14V131.11V131.079V131.048V131.017V130.987V130.956V130.925V130.894V130.863V130.832V130.8V130.769V130.738V130.707V130.675V130.644V130.613V130.581V130.55V130.518V130.487V130.455V130.423V130.392V130.36V130.328V130.296V130.264V130.233V130.201V130.169V130.137V130.105V130.073V130.04V130.008V129.976V129.944V129.912V129.879V129.847V129.815V129.782V129.75V129.718V129.685V129.653V129.62V129.588V129.555V129.522V129.49V129.457V129.424V129.392V129.359V129.326V129.294V129.261V129.228V129.195V129.162V129.129V129.097V129.064V129.031V128.998V128.965V128.932V128.899V128.866V128.833V128.8V128.767V128.734V128.701V128.667V128.634V128.601V128.568V128.535V128.502V128.469V128.435V128.402V128.369V128.336V128.303V128.269V128.236V128.203V128.17V128.136V128.103V128.07V128.037V128.003V127.97V127.937V127.904V127.87V127.837V127.804V127.77V127.737V127.704V127.671V127.637V127.604V127.571V127.538V127.504V127.471V127.438V127.405V127.371V127.338V127.305V127.272V127.239V127.205V127.172V127.139V127.106V127.073V127.04V127.006V126.973V126.94V126.907V126.874V126.841V126.808V126.775V126.742V126.709V126.676V126.643V126.61V126.577V126.544V126.511V126.478V126.446V126.413V126.38V126.347V126.314V126.282V126.249V126.216V126.184V126.151V126.118V126.086V126.053V126.021V125.988V125.956V125.923V125.891V125.858V125.826V125.794V125.761V125.729V125.697V125.665V125.632V125.6V125.568V125.536V125.504V125.472V125.44V125.408V125.376V125.344V125.313V125.281V125.249V125.217V125.186V125.154V125.123V125.091V125.059V125.028V124.997V124.965V124.934V124.903V124.871V124.84V124.809V124.778V124.747V124.716V124.685V124.654V124.623V124.592V124.562V124.531V124.5V124.47V124.439V124.409V124.378V124.348V124.317V124.287V124.257V124.227V124.197V124.167V124.137V124.107V124.077V124.047V124.017V123.987V123.958V123.928V123.899V123.869V123.84V123.81V123.781V123.752V123.723V123.694V123.665V123.636V123.607V123.578V123.549V123.521V123.492V123.463V123.435V123.407V123.378V123.35V123.322V123.294V123.266V123.238V123.21V123.182V123.154V98.4684ZM296.278 119.121C294.514 118.13 293.728 117.342 293.344 116.478C292.95 115.591 292.938 114.552 292.938 112.905C293.038 112.291 293.065 111.917 293.072 111.657C293.074 111.572 293.074 111.49 293.074 111.429C293.074 111.404 293.074 111.382 293.074 111.366C293.075 111.301 293.078 111.276 293.082 111.257C293.09 111.214 293.116 111.135 293.279 110.84C293.366 110.681 293.481 110.479 293.637 110.208C293.759 109.994 293.907 109.735 294.086 109.42C294.677 108.628 295.046 108.267 295.341 108.054C295.553 107.902 295.72 107.825 295.949 107.718C296.063 107.666 296.192 107.606 296.349 107.527C297.072 107.162 298.662 106.754 301.039 106.754C301.252 106.754 301.472 106.753 301.695 106.752C302.998 106.746 304.426 106.739 305.597 106.942C306.281 107.061 306.818 107.243 307.173 107.497C307.502 107.732 307.675 108.024 307.675 108.445V120.626H302.718L298.902 119.997C297.971 119.844 297.075 119.569 296.278 119.121Z" fill="#0047FF" stroke="#0047FF"/>
</svg>
